<svg width="46" height="43" viewBox="0 0 46 43" fill="none" xmlns="http://www.w3.org/2000/svg">
<path d="M30.5617 18.9726C30.0508 18.4509 29.429 18.0509 28.7423 17.8024C28.0557 17.554 27.3219 17.4634 26.5954 17.5373C25.8689 17.6113 25.1684 17.848 24.546 18.2297C23.9235 18.6115 23.395 19.1286 22.9997 19.7426C22.6046 19.1285 22.0762 18.6112 21.4537 18.2293C20.8312 17.8474 20.1307 17.6107 19.4042 17.5367C18.6776 17.4627 17.9438 17.5534 17.2571 17.802C16.5704 18.0506 15.9486 18.4507 15.4377 18.9726C14.5161 19.9153 14 21.1812 14 22.4996C14 23.818 14.5161 25.084 15.4377 26.0266L22.9997 33.7116L30.5637 26.0276C31.4847 25.0843 32.0002 23.8181 31.9998 22.4997C31.9994 21.1813 31.4833 19.9154 30.5617 18.9726V18.9726Z" stroke="white" stroke-width="2" stroke-miterlimit="10" stroke-linecap="round" stroke-linejoin="round"/>
<path d="M41 41.5117H5C3.93913 41.5117 2.92172 41.0903 2.17157 40.3401C1.42143 39.59 1 38.5726 1 37.5117V1.51172H17L22 9.51172H45V37.5117C45 38.5726 44.5786 39.59 43.8284 40.3401C43.0783 41.0903 42.0609 41.5117 41 41.5117Z" stroke="white" stroke-width="2" stroke-miterlimit="10" stroke-linecap="round" stroke-linejoin="round"/>
</svg>
