<svg width="272" height="38" viewBox="0 0 272 38" fill="none" xmlns="http://www.w3.org/2000/svg">
<g filter="url(#filter0_d_99_974)">
<path d="M253.479 35.0555C253.479 30.7239 253.479 26.3587 253.479 21.9599C253.479 17.5275 253.479 13.1455 253.479 8.81381C252.203 8.81381 250.911 8.81381 249.601 8.81381C248.291 8.81381 246.999 8.81381 245.723 8.81381C245.723 7.50424 245.723 6.17788 245.723 4.83474C245.723 3.45801 245.723 2.11486 245.723 0.805298C249.719 0.805298 253.765 0.805298 257.861 0.805298C261.958 0.805298 266.004 0.805298 270 0.805298C270 2.11486 270 3.45801 270 4.83474C270 6.17788 270 7.50424 270 8.81381C268.758 8.81381 267.482 8.81381 266.172 8.81381C264.862 8.81381 263.57 8.81381 262.294 8.81381C262.294 13.1455 262.294 17.5275 262.294 21.9599C262.294 26.3587 262.294 30.7239 262.294 35.0555C260.85 35.0555 259.389 35.0555 257.912 35.0555C256.434 35.0555 254.957 35.0555 253.479 35.0555Z" fill="#682CA6"/>
<path d="M226.138 35.0555C226.138 29.4143 226.138 23.7059 226.138 17.9304C226.138 12.1549 226.138 6.44651 226.138 0.805298C227.616 0.805298 229.093 0.805298 230.571 0.805298C232.048 0.805298 233.509 0.805298 234.953 0.805298C234.953 5.13695 234.953 9.51896 234.953 13.9513C234.953 18.3501 234.953 22.7154 234.953 27.047C236.732 27.047 238.529 27.047 240.342 27.047C242.155 27.047 243.935 27.047 245.681 27.047C245.681 28.3566 245.681 29.6997 245.681 31.0765C245.681 32.4196 245.681 33.746 245.681 35.0555C242.457 35.0555 239.2 35.0555 235.91 35.0555C232.619 35.0555 229.362 35.0555 226.138 35.0555Z" fill="#682CA6"/>
<path d="M204.312 35.8619C201.861 35.8619 199.595 35.4254 197.513 34.5524C195.431 33.6458 193.634 32.3866 192.123 30.7748C190.612 29.163 189.437 27.2658 188.598 25.0832C187.758 22.867 187.338 20.4661 187.338 17.8806C187.338 15.295 187.758 12.9109 188.598 10.7283C189.437 8.54571 190.612 6.6653 192.123 5.0871C193.634 3.47533 195.431 2.23292 197.513 1.35987C199.595 0.453251 201.861 -6.10352e-05 204.312 -6.10352e-05C206.764 -6.10352e-05 209.013 0.453251 211.062 1.35987C213.144 2.23292 214.94 3.47533 216.451 5.0871C217.996 6.6653 219.188 8.54571 220.027 10.7283C220.867 12.9109 221.286 15.295 221.286 17.8806C221.286 20.4661 220.867 22.867 220.027 25.0832C219.188 27.2658 217.996 29.163 216.451 30.7748C214.94 32.3866 213.144 33.6458 211.062 34.5524C209.013 35.4254 206.764 35.8619 204.312 35.8619ZM204.312 27.7023C205.958 27.7023 207.368 27.2994 208.543 26.4935C209.719 25.654 210.625 24.4956 211.263 23.0181C211.935 21.5406 212.271 19.8281 212.271 17.8806C212.271 15.933 211.935 14.2373 211.263 12.7934C210.625 11.3495 209.719 10.2246 208.543 9.41875C207.368 8.57929 205.958 8.15955 204.312 8.15955C202.701 8.15955 201.29 8.5625 200.081 9.36838C198.906 10.1743 197.983 11.3159 197.311 12.7934C196.673 14.2373 196.354 15.933 196.354 17.8806C196.354 19.8281 196.673 21.5406 197.311 23.0181C197.983 24.4956 198.906 25.654 200.081 26.4935C201.29 27.2994 202.701 27.7023 204.312 27.7023Z" fill="#682CA6"/>
<path d="M163.115 0.805298C164.357 4.63326 165.583 8.49481 166.792 12.3899C168.034 16.2851 169.277 20.1466 170.519 23.9746C171.761 20.1466 173.004 16.2851 174.246 12.3899C175.489 8.49481 176.731 4.63326 177.973 0.805298C179.417 0.805298 180.878 0.805298 182.355 0.805298C183.833 0.805298 185.294 0.805298 186.737 0.805298C184.924 6.44651 183.077 12.1549 181.197 17.9304C179.35 23.7059 177.52 29.4143 175.707 35.0555C173.961 35.0555 172.198 35.0555 170.418 35.0555C168.672 35.0555 166.926 35.0555 165.18 35.0555C163.367 29.4143 161.52 23.7059 159.64 17.9304C157.793 12.1549 155.963 6.44651 154.149 0.805298C155.627 0.805298 157.121 0.805298 158.632 0.805298C160.143 0.805298 161.637 0.805298 163.115 0.805298Z" fill="#682CA6"/>
<path d="M122.5 35.0555C122.5 29.4143 122.5 23.7059 122.5 17.9304C122.5 12.1549 122.5 6.44651 122.5 0.805298C123.978 0.805298 125.455 0.805298 126.933 0.805298C128.444 0.805298 129.921 0.805298 131.365 0.805298C133.145 3.99527 134.941 7.21882 136.755 10.476C138.601 13.7331 140.415 16.9566 142.194 20.1466C142.194 16.9566 142.194 13.7331 142.194 10.476C142.194 7.21882 142.194 3.99527 142.194 0.805298C143.638 0.805298 145.082 0.805298 146.526 0.805298C147.97 0.805298 149.414 0.805298 150.858 0.805298C150.858 6.44651 150.858 12.1549 150.858 17.9304C150.858 23.7059 150.858 29.4143 150.858 35.0555C149.414 35.0555 147.936 35.0555 146.425 35.0555C144.948 35.0555 143.47 35.0555 141.993 35.0555C140.213 31.8656 138.4 28.642 136.553 25.3849C134.74 22.1277 132.943 18.9042 131.164 15.7142C131.164 18.9042 131.164 22.1277 131.164 25.3849C131.164 28.642 131.164 31.8656 131.164 35.0555C129.72 35.0555 128.276 35.0555 126.832 35.0555C125.388 35.0555 123.944 35.0555 122.5 35.0555Z" fill="#6CCF9B"/>
<path d="M95.8896 35.0555C95.8896 29.4143 95.8896 23.7059 95.8896 17.9304C95.8896 12.1549 95.8896 6.44651 95.8896 0.805298C99.2811 0.805298 102.706 0.805298 106.165 0.805298C109.623 0.805298 113.048 0.805298 116.44 0.805298C116.44 2.08129 116.44 3.39085 116.44 4.734C116.44 6.07715 116.44 7.38671 116.44 8.6627C114.492 8.6627 112.528 8.6627 110.547 8.6627C108.599 8.6627 106.652 8.6627 104.704 8.6627C104.704 9.50217 104.704 10.3416 104.704 11.1811C104.704 11.987 104.704 12.8097 104.704 13.6491C106.484 13.6491 108.28 13.6491 110.093 13.6491C111.907 13.6491 113.686 13.6491 115.432 13.6491C115.432 14.8915 115.432 16.1507 115.432 17.4267C115.432 18.7027 115.432 19.9787 115.432 21.2547C113.686 21.2547 111.907 21.2547 110.093 21.2547C108.28 21.2547 106.484 21.2547 104.704 21.2547C104.704 22.2285 104.704 23.2191 104.704 24.2264C104.704 25.2338 104.704 26.2243 104.704 27.1981C106.652 27.1981 108.599 27.1981 110.547 27.1981C112.528 27.1981 114.492 27.1981 116.44 27.1981C116.44 28.4741 116.44 29.7837 116.44 31.1268C116.44 32.47 116.44 33.7795 116.44 35.0555C113.048 35.0555 109.623 35.0555 106.165 35.0555C102.706 35.0555 99.2811 35.0555 95.8896 35.0555Z" fill="#6CCF9B"/>
<path d="M69.2798 35.0555C69.2798 29.4143 69.2798 23.7059 69.2798 17.9304C69.2798 12.1549 69.2798 6.44651 69.2798 0.805298C72.6712 0.805298 76.0963 0.805298 79.5549 0.805298C83.0135 0.805298 86.4385 0.805298 89.8299 0.805298C89.8299 2.08129 89.8299 3.39085 89.8299 4.734C89.8299 6.07715 89.8299 7.38671 89.8299 8.6627C87.8824 8.6627 85.918 8.6627 83.9369 8.6627C81.9893 8.6627 80.0417 8.6627 78.0942 8.6627C78.0942 9.50217 78.0942 10.3416 78.0942 11.1811C78.0942 11.987 78.0942 12.8097 78.0942 13.6491C79.8739 13.6491 81.6703 13.6491 83.4836 13.6491C85.2968 13.6491 87.0765 13.6491 88.8226 13.6491C88.8226 14.8915 88.8226 16.1507 88.8226 17.4267C88.8226 18.7027 88.8226 19.9787 88.8226 21.2547C87.0765 21.2547 85.2968 21.2547 83.4836 21.2547C81.6703 21.2547 79.8739 21.2547 78.0942 21.2547C78.0942 22.2285 78.0942 23.2191 78.0942 24.2264C78.0942 25.2338 78.0942 26.2243 78.0942 27.1981C80.0417 27.1981 81.9893 27.1981 83.9369 27.1981C85.918 27.1981 87.8824 27.1981 89.8299 27.1981C89.8299 28.4741 89.8299 29.7837 89.8299 31.1268C89.8299 32.47 89.8299 33.7795 89.8299 35.0555C86.4385 35.0555 83.0135 35.0555 79.5549 35.0555C76.0963 35.0555 72.6712 35.0555 69.2798 35.0555Z" fill="#6CCF9B"/>
<path d="M37.7505 35.0555C37.7505 29.4143 37.7505 23.7059 37.7505 17.9304C37.7505 12.1549 37.7505 6.44651 37.7505 0.805298C39.7652 0.805298 41.7799 0.805298 43.7946 0.805298C45.8429 0.805298 47.8745 0.805298 49.8892 0.805298C52.4412 0.805298 54.6741 1.29219 56.5881 2.26597C58.5021 3.20617 59.9796 4.54932 61.0205 6.29541C62.095 8.00792 62.6323 10.0226 62.6323 12.3396C62.6323 14.3207 62.2293 16.0836 61.4234 17.6282C60.6176 19.1728 59.5263 20.432 58.1495 21.4058C59.4927 23.6556 60.8358 25.9389 62.179 28.2559C63.5557 30.5392 64.9156 32.8058 66.2588 35.0555C64.6134 35.0555 62.9681 35.0555 61.3227 35.0555C59.6774 35.0555 58.032 35.0555 56.3867 35.0555C55.3457 33.1751 54.288 31.2611 53.2135 29.3136C52.1725 27.366 51.1148 25.452 50.0403 23.5716C49.4694 23.5716 48.8818 23.5716 48.2774 23.5716C47.7066 23.5716 47.1357 23.5716 46.5649 23.5716C46.5649 25.452 46.5649 27.366 46.5649 29.3136C46.5649 31.2611 46.5649 33.1751 46.5649 35.0555C45.121 35.0555 43.6603 35.0555 42.1829 35.0555C40.7054 35.0555 39.2279 35.0555 37.7505 35.0555ZM49.8892 8.76344C49.3519 8.76344 48.7979 8.76344 48.227 8.76344C47.6898 8.76344 47.1357 8.76344 46.5649 8.76344C46.5649 10.0058 46.5649 11.2483 46.5649 12.4907C46.5649 13.7331 46.5649 14.9755 46.5649 16.2179C47.2029 16.2179 47.8409 16.2179 48.4789 16.2179C49.1169 16.2179 49.7549 16.2179 50.3929 16.2179C51.4002 16.2179 52.2229 15.8653 52.8609 15.1602C53.4989 14.4214 53.8179 13.5316 53.8179 12.4907C53.8179 11.4162 53.4653 10.5263 52.7602 9.82117C52.0886 9.11602 51.1316 8.76344 49.8892 8.76344Z" fill="#6CCF9B"/>
<path d="M31.3645 33.2426C27.8724 34.6529 24.6152 35.4588 21.5931 35.6603C18.6046 35.8953 15.9016 35.6267 13.4839 34.8544C11.0662 34.0485 9.00115 32.8396 7.28864 31.2279C5.57613 29.6161 4.26656 27.7021 3.35994 25.4859C2.45331 23.2697 2 20.8521 2 18.2329C2 15.6474 2.41973 13.2633 3.2592 11.0807C4.09866 8.86448 5.32429 6.9505 6.93606 5.33872C8.58142 3.72695 10.5626 2.46775 12.8795 1.56112C15.1964 0.6545 17.8323 0.217976 20.7873 0.251555C23.7422 0.251555 26.9825 0.788814 30.5083 1.86333C30.5083 3.27363 30.5083 4.70073 30.5083 6.14461C30.5083 7.55492 30.5083 8.96522 30.5083 10.3755C27.7213 9.26743 25.1357 8.62943 22.7516 8.46154C20.4011 8.29365 18.336 8.54549 16.5564 9.21706C14.8103 9.88863 13.4335 10.9632 12.4262 12.4406C11.4524 13.8845 10.9655 15.6977 10.9655 17.8804C10.9655 19.7943 11.3181 21.4901 12.0232 22.9675C12.762 24.445 13.7861 25.6034 15.0957 26.4429C16.4052 27.2824 17.8995 27.7021 19.5784 27.7021C20.1493 27.7021 20.7201 27.6853 21.2909 27.6517C21.8618 27.5846 22.4158 27.4839 22.9531 27.3495C22.9531 26.4765 22.9531 25.5867 22.9531 24.68C22.9531 23.7734 22.9531 22.8836 22.9531 22.0105C22.0129 22.0105 21.0727 22.0105 20.1325 22.0105C19.1923 22.0105 18.2521 22.0105 17.3119 22.0105C17.3119 20.7681 17.3119 19.5257 17.3119 18.2833C17.3119 17.0073 17.3119 15.7481 17.3119 14.5057C19.6288 14.5057 21.9625 14.5057 24.313 14.5057C26.6971 14.5057 29.0476 14.5057 31.3645 14.5057C31.3645 17.5949 31.3645 20.7178 31.3645 23.8741C31.3645 27.0305 31.3645 30.1534 31.3645 33.2426Z" fill="#6CCF9B"/>
</g>
<defs>
<filter id="filter0_d_99_974" x="0.926444" y="-6.10352e-05" width="270.147" height="38.0091" filterUnits="userSpaceOnUse" color-interpolation-filters="sRGB">
<feFlood flood-opacity="0" result="BackgroundImageFix"/>
<feColorMatrix in="SourceAlpha" type="matrix" values="0 0 0 0 0 0 0 0 0 0 0 0 0 0 0 0 0 0 127 0" result="hardAlpha"/>
<feOffset dy="1.07356"/>
<feGaussianBlur stdDeviation="0.536778"/>
<feComposite in2="hardAlpha" operator="out"/>
<feColorMatrix type="matrix" values="0 0 0 0 1 0 0 0 0 1 0 0 0 0 1 0 0 0 0.45 0"/>
<feBlend mode="normal" in2="BackgroundImageFix" result="effect1_dropShadow_99_974"/>
<feBlend mode="normal" in="SourceGraphic" in2="effect1_dropShadow_99_974" result="shape"/>
</filter>
</defs>
</svg>
