<svg width="240" height="44" viewBox="0 0 240 44" fill="none" xmlns="http://www.w3.org/2000/svg">
<g filter="url(#filter0_d_99_935)">
<g filter="url(#filter1_d_99_935)">
<path d="M13.9478 11.1863C13.9478 6.66515 17.6129 3 22.1341 3H42.1088C46.63 3 50.2951 6.66515 50.2951 11.1863V30.3424C50.2951 34.8636 46.63 38.5288 42.1088 38.5288H22.1341C17.6129 38.5288 13.9478 34.8636 13.9478 30.3424V11.1863Z" fill="#682CA6"/>
</g>
<g clip-path="url(#clip0_99_935)">
<path d="M36.5342 2.18137L25.892 20.2732L23.9272 23.7933H31.7043L25.892 40.4935L27.2836 40.2479L40.3818 19.0452H32.543L38.6627 2.18137H36.5342Z" fill="#3F3F3F"/>
<path fill-rule="evenodd" clip-rule="evenodd" d="M17.2222 20.1914C17.4698 12.3908 23.7123 6.10301 31.4945 5.78336L29.1991 10.0161C24.6581 11.2522 21.2806 15.3112 21.068 20.1914H17.2222ZM17.2874 22.1561C17.8299 27.6463 21.3521 32.261 26.2144 34.3605L27.3121 30.6397C24.0332 29.0575 21.655 25.9038 21.155 22.1561H17.2874ZM43.0628 22.1561C42.441 26.8172 38.9139 30.5595 34.3621 31.5023L32.2355 35.5746C39.9115 35.5147 46.2055 29.6514 46.9461 22.1561H43.0628ZM47.0114 20.1914C46.8343 14.6119 43.5901 9.80631 38.9093 7.4051L37.6475 11.115C40.8115 12.9509 42.9808 16.3116 43.1498 20.1914H47.0114Z" fill="#5E5E5E"/>
<path d="M36.5342 1.85391L25.892 19.9457L23.9272 23.4659H31.7043L25.892 40.166L27.2836 39.9204L40.3818 18.7178H32.543L38.6627 1.85391H36.5342Z" fill="url(#paint0_linear_99_935)"/>
<path fill-rule="evenodd" clip-rule="evenodd" d="M17.2222 19.8639C17.4698 12.0633 23.7123 5.77555 31.4945 5.4559L29.1991 9.68868C24.6581 10.9248 21.2806 14.9837 21.068 19.8639H17.2222ZM17.2874 21.8286C17.8299 27.3189 21.3521 31.9335 26.2144 34.0331L27.3121 30.3123C24.0332 28.7301 21.655 25.5764 21.155 21.8286H17.2874ZM43.0628 21.8286C42.441 26.4897 38.9139 30.232 34.3621 31.1749L32.2355 35.2472C39.9115 35.1873 46.2055 29.324 46.9461 21.8286H43.0628ZM47.0114 19.8639C46.8343 14.2844 43.5901 9.47886 38.9093 7.07765L37.6475 10.7875C40.8115 12.6235 42.9808 15.9842 43.1498 19.8639H47.0114Z" fill="url(#paint1_linear_99_935)"/>
</g>
<rect x="52.4102" y="24.3836" width="7.20399" height="1.30982" rx="0.654908" fill="#682CA6"/>
<circle cx="59.6962" cy="25.0213" r="1.22795" fill="#682CA6"/>
<rect x="12.6245" y="16.8177" width="7.20399" height="1.30982" rx="0.654908" transform="rotate(-180 12.6245 16.8177)" fill="#682CA6"/>
<circle cx="5.33845" cy="16.18" r="1.22795" transform="rotate(-180 5.33845 16.18)" fill="#682CA6"/>
<rect x="52.4102" y="15.5423" width="7.20399" height="1.30982" rx="0.654908" fill="#682CA6"/>
<circle cx="59.6962" cy="16.18" r="1.22795" fill="#682CA6"/>
<rect x="12.6245" y="25.659" width="7.20399" height="1.30982" rx="0.654908" transform="rotate(-180 12.6245 25.659)" fill="#682CA6"/>
<circle cx="5.33845" cy="25.0213" r="1.22795" transform="rotate(-180 5.33845 25.0213)" fill="#682CA6"/>
<rect x="52.4102" y="21.5012" width="10.4785" height="1.30982" rx="0.654908" fill="#682CA6"/>
<circle cx="62.8071" cy="22.0742" r="1.22795" fill="#682CA6"/>
<rect x="12.6245" y="19.7001" width="10.4785" height="1.30982" rx="0.654908" transform="rotate(-180 12.6245 19.7001)" fill="#682CA6"/>
<circle cx="2.22761" cy="19.1271" r="1.22795" transform="rotate(-180 2.22761 19.1271)" fill="#682CA6"/>
<rect x="52.4102" y="18.5542" width="10.4785" height="1.30982" rx="0.654908" fill="#682CA6"/>
<circle cx="62.8071" cy="19.1272" r="1.22795" fill="#682CA6"/>
<rect x="12.6245" y="22.6472" width="10.4785" height="1.30982" rx="0.654908" transform="rotate(-180 12.6245 22.6472)" fill="#682CA6"/>
<circle cx="2.22761" cy="22.0741" r="1.22795" transform="rotate(-180 2.22761 22.0741)" fill="#682CA6"/>
</g>
<g filter="url(#filter2_d_99_935)">
<path d="M228.769 31.3121C228.769 28.6297 228.769 25.9265 228.769 23.2025C228.769 20.4577 228.769 17.7442 228.769 15.0618C227.979 15.0618 227.178 15.0618 226.367 15.0618C225.557 15.0618 224.756 15.0618 223.966 15.0618C223.966 14.2508 223.966 13.4295 223.966 12.5977C223.966 11.7452 223.966 10.9134 223.966 10.1025C226.44 10.1025 228.946 10.1025 231.483 10.1025C234.02 10.1025 236.525 10.1025 239 10.1025C239 10.9134 239 11.7452 239 12.5977C239 13.4295 239 14.2508 239 15.0618C238.23 15.0618 237.44 15.0618 236.629 15.0618C235.818 15.0618 235.018 15.0618 234.228 15.0618C234.228 17.7442 234.228 20.4577 234.228 23.2025C234.228 25.9265 234.228 28.6297 234.228 31.3121C233.333 31.3121 232.429 31.3121 231.514 31.3121C230.599 31.3121 229.684 31.3121 228.769 31.3121Z" fill="#682CA6"/>
<path d="M211.838 31.3121C211.838 27.8187 211.838 24.2838 211.838 20.7073C211.838 17.1308 211.838 13.5958 211.838 10.1025C212.753 10.1025 213.668 10.1025 214.583 10.1025C215.498 10.1025 216.403 10.1025 217.297 10.1025C217.297 12.7849 217.297 15.4984 217.297 18.2432C217.297 20.9672 217.297 23.6704 217.297 26.3528C218.399 26.3528 219.511 26.3528 220.634 26.3528C221.757 26.3528 222.859 26.3528 223.94 26.3528C223.94 27.1637 223.94 27.9955 223.94 28.848C223.94 29.6798 223.94 30.5011 223.94 31.3121C221.944 31.3121 219.927 31.3121 217.889 31.3121C215.852 31.3121 213.835 31.3121 211.838 31.3121Z" fill="#682CA6"/>
<path d="M198.322 31.8114C196.804 31.8114 195.401 31.5411 194.112 31.0005C192.822 30.439 191.71 29.6593 190.774 28.6612C189.838 27.6631 189.111 26.4882 188.591 25.1366C188.071 23.7642 187.811 22.2775 187.811 20.6764C187.811 19.0753 188.071 17.5989 188.591 16.2473C189.111 14.8957 189.838 13.7313 190.774 12.754C191.71 11.7559 192.822 10.9865 194.112 10.4459C195.401 9.88443 196.804 9.60371 198.322 9.60371C199.84 9.60371 201.233 9.88443 202.502 10.4459C203.791 10.9865 204.903 11.7559 205.839 12.754C206.796 13.7313 207.534 14.8957 208.054 16.2473C208.574 17.5989 208.833 19.0753 208.833 20.6764C208.833 22.2775 208.574 23.7642 208.054 25.1366C207.534 26.4882 206.796 27.6631 205.839 28.6612C204.903 29.6593 203.791 30.439 202.502 31.0005C201.233 31.5411 199.84 31.8114 198.322 31.8114ZM198.322 26.7585C199.341 26.7585 200.215 26.509 200.942 26.01C201.67 25.4901 202.231 24.7727 202.627 23.8578C203.042 22.9429 203.25 21.8824 203.25 20.6764C203.25 19.4703 203.042 18.4203 202.627 17.5261C202.231 16.632 201.67 15.9354 200.942 15.4364C200.215 14.9165 199.341 14.6566 198.322 14.6566C197.324 14.6566 196.451 14.9061 195.702 15.4052C194.974 15.9042 194.403 16.6112 193.987 17.5261C193.592 18.4203 193.394 19.4703 193.394 20.6764C193.394 21.8824 193.592 22.9429 193.987 23.8578C194.403 24.7727 194.974 25.4901 195.702 26.01C196.451 26.509 197.324 26.7585 198.322 26.7585Z" fill="#682CA6"/>
<path d="M172.811 10.1025C173.58 12.473 174.339 14.8642 175.088 17.2763C175.857 19.6884 176.626 22.0797 177.396 24.4501C178.165 22.0797 178.934 19.6884 179.704 17.2763C180.473 14.8642 181.243 12.473 182.012 10.1025C182.906 10.1025 183.811 10.1025 184.726 10.1025C185.64 10.1025 186.545 10.1025 187.439 10.1025C186.316 13.5958 185.173 17.1308 184.008 20.7073C182.864 24.2838 181.731 27.8187 180.608 31.3121C179.527 31.3121 178.435 31.3121 177.333 31.3121C176.252 31.3121 175.171 31.3121 174.09 31.3121C172.967 27.8187 171.823 24.2838 170.659 20.7073C169.515 17.1308 168.382 13.5958 167.259 10.1025C168.174 10.1025 169.099 10.1025 170.035 10.1025C170.97 10.1025 171.896 10.1025 172.811 10.1025Z" fill="#682CA6"/>
<path d="M147.66 31.3121C147.66 27.8187 147.66 24.2838 147.66 20.7073C147.66 17.1308 147.66 13.5958 147.66 10.1025C148.575 10.1025 149.49 10.1025 150.405 10.1025C151.341 10.1025 152.256 10.1025 153.15 10.1025C154.252 12.0779 155.364 14.0741 156.487 16.0911C157.631 18.1081 158.754 20.1043 159.856 22.0797C159.856 20.1043 159.856 18.1081 159.856 16.0911C159.856 14.0741 159.856 12.0779 159.856 10.1025C160.75 10.1025 161.644 10.1025 162.538 10.1025C163.432 10.1025 164.326 10.1025 165.22 10.1025C165.22 13.5958 165.22 17.1308 165.22 20.7073C165.22 24.2838 165.22 27.8187 165.22 31.3121C164.326 31.3121 163.411 31.3121 162.476 31.3121C161.561 31.3121 160.646 31.3121 159.731 31.3121C158.629 29.3367 157.506 27.3405 156.362 25.3235C155.239 23.3065 154.127 21.3103 153.025 19.3349C153.025 21.3103 153.025 23.3065 153.025 25.3235C153.025 27.3405 153.025 29.3367 153.025 31.3121C152.131 31.3121 151.237 31.3121 150.343 31.3121C149.448 31.3121 148.554 31.3121 147.66 31.3121Z" fill="#6CCF9B"/>
<path d="M131.181 31.3121C131.181 27.8187 131.181 24.2838 131.181 20.7073C131.181 17.1308 131.181 13.5958 131.181 10.1025C133.281 10.1025 135.402 10.1025 137.544 10.1025C139.686 10.1025 141.807 10.1025 143.907 10.1025C143.907 10.8926 143.907 11.7036 143.907 12.5353C143.907 13.3671 143.907 14.178 143.907 14.9682C142.701 14.9682 141.484 14.9682 140.258 14.9682C139.052 14.9682 137.846 14.9682 136.64 14.9682C136.64 15.488 136.64 16.0079 136.64 16.5277C136.64 17.0268 136.64 17.5362 136.64 18.0561C137.742 18.0561 138.854 18.0561 139.977 18.0561C141.1 18.0561 142.202 18.0561 143.283 18.0561C143.283 18.8254 143.283 19.6052 143.283 20.3954C143.283 21.1855 143.283 21.9757 143.283 22.7659C142.202 22.7659 141.1 22.7659 139.977 22.7659C138.854 22.7659 137.742 22.7659 136.64 22.7659C136.64 23.3689 136.64 23.9823 136.64 24.6061C136.64 25.2299 136.64 25.8433 136.64 26.4463C137.846 26.4463 139.052 26.4463 140.258 26.4463C141.484 26.4463 142.701 26.4463 143.907 26.4463C143.907 27.2365 143.907 28.0475 143.907 28.8792C143.907 29.711 143.907 30.5219 143.907 31.3121C141.807 31.3121 139.686 31.3121 137.544 31.3121C135.402 31.3121 133.281 31.3121 131.181 31.3121Z" fill="#6CCF9B"/>
<path d="M114.703 31.3121C114.703 27.8187 114.703 24.2838 114.703 20.7073C114.703 17.1308 114.703 13.5958 114.703 10.1025C116.803 10.1025 118.924 10.1025 121.066 10.1025C123.207 10.1025 125.328 10.1025 127.428 10.1025C127.428 10.8926 127.428 11.7036 127.428 12.5353C127.428 13.3671 127.428 14.178 127.428 14.9682C126.222 14.9682 125.006 14.9682 123.779 14.9682C122.573 14.9682 121.367 14.9682 120.161 14.9682C120.161 15.488 120.161 16.0079 120.161 16.5277C120.161 17.0268 120.161 17.5362 120.161 18.0561C121.263 18.0561 122.376 18.0561 123.498 18.0561C124.621 18.0561 125.723 18.0561 126.805 18.0561C126.805 18.8254 126.805 19.6052 126.805 20.3954C126.805 21.1855 126.805 21.9757 126.805 22.7659C125.723 22.7659 124.621 22.7659 123.498 22.7659C122.376 22.7659 121.263 22.7659 120.161 22.7659C120.161 23.3689 120.161 23.9823 120.161 24.6061C120.161 25.2299 120.161 25.8433 120.161 26.4463C121.367 26.4463 122.573 26.4463 123.779 26.4463C125.006 26.4463 126.222 26.4463 127.428 26.4463C127.428 27.2365 127.428 28.0475 127.428 28.8792C127.428 29.711 127.428 30.5219 127.428 31.3121C125.328 31.3121 123.207 31.3121 121.066 31.3121C118.924 31.3121 116.803 31.3121 114.703 31.3121Z" fill="#6CCF9B"/>
<path d="M95.1782 31.3121C95.1782 27.8187 95.1782 24.2838 95.1782 20.7073C95.1782 17.1308 95.1782 13.5958 95.1782 10.1025C96.4258 10.1025 97.6735 10.1025 98.9211 10.1025C100.19 10.1025 101.448 10.1025 102.695 10.1025C104.275 10.1025 105.658 10.404 106.844 11.007C108.029 11.5892 108.944 12.421 109.588 13.5022C110.254 14.5627 110.586 15.8103 110.586 17.2451C110.586 18.4719 110.337 19.5636 109.838 20.5201C109.339 21.4766 108.663 22.2564 107.81 22.8594C108.642 24.2526 109.474 25.6666 110.306 27.1013C111.158 28.5153 112 29.9189 112.832 31.3121C111.813 31.3121 110.794 31.3121 109.775 31.3121C108.757 31.3121 107.738 31.3121 106.719 31.3121C106.074 30.1476 105.419 28.9624 104.754 27.7564C104.109 26.5503 103.454 25.3651 102.789 24.2006C102.435 24.2006 102.071 24.2006 101.697 24.2006C101.344 24.2006 100.99 24.2006 100.637 24.2006C100.637 25.3651 100.637 26.5503 100.637 27.7564C100.637 28.9624 100.637 30.1476 100.637 31.3121C99.7424 31.3121 98.8379 31.3121 97.923 31.3121C97.0081 31.3121 96.0931 31.3121 95.1782 31.3121ZM102.695 15.0306C102.362 15.0306 102.019 15.0306 101.666 15.0306C101.333 15.0306 100.99 15.0306 100.637 15.0306C100.637 15.8 100.637 16.5693 100.637 17.3387C100.637 18.1081 100.637 18.8774 100.637 19.6468C101.032 19.6468 101.427 19.6468 101.822 19.6468C102.217 19.6468 102.612 19.6468 103.007 19.6468C103.631 19.6468 104.14 19.4285 104.535 18.9918C104.93 18.5343 105.128 17.9833 105.128 17.3387C105.128 16.6733 104.91 16.1223 104.473 15.6856C104.057 15.2489 103.465 15.0306 102.695 15.0306Z" fill="#6CCF9B"/>
<path d="M91.2237 30.1894C89.0611 31.0627 87.0441 31.5617 85.1727 31.6865C83.3221 31.8321 81.6482 31.6657 80.151 31.1875C78.6539 30.6884 77.375 29.9398 76.3146 28.9417C75.2541 27.9436 74.4431 26.7584 73.8817 25.386C73.3203 24.0136 73.0396 22.5165 73.0396 20.8946C73.0396 19.2934 73.2995 17.8171 73.8193 16.4655C74.3392 15.0931 75.0981 13.9079 76.0962 12.9098C77.1151 11.9117 78.342 11.1319 79.7767 10.5705C81.2115 10.009 82.8438 9.73871 84.6736 9.75951C86.5035 9.75951 88.5101 10.0922 90.6934 10.7576C90.6934 11.6309 90.6934 12.5147 90.6934 13.4088C90.6934 14.2821 90.6934 15.1555 90.6934 16.0288C88.9675 15.3426 87.3664 14.9475 85.8901 14.8436C84.4345 14.7396 83.1557 14.8956 82.0536 15.3114C80.9724 15.7273 80.1198 16.3927 79.496 17.3076C78.893 18.2018 78.5915 19.3246 78.5915 20.6762C78.5915 21.8615 78.8098 22.9115 79.2465 23.8265C79.7039 24.7414 80.3382 25.4588 81.1491 25.9786C81.9601 26.4985 82.8854 26.7584 83.9251 26.7584C84.2786 26.7584 84.6321 26.748 84.9856 26.7272C85.339 26.6856 85.6821 26.6232 86.0148 26.5401C86.0148 25.9994 86.0148 25.4484 86.0148 24.8869C86.0148 24.3255 86.0148 23.7745 86.0148 23.2338C85.4326 23.2338 84.8504 23.2338 84.2682 23.2338C83.6859 23.2338 83.1037 23.2338 82.5215 23.2338C82.5215 22.4645 82.5215 21.6951 82.5215 20.9257C82.5215 20.1356 82.5215 19.3558 82.5215 18.5864C83.9563 18.5864 85.4014 18.5864 86.857 18.5864C88.3333 18.5864 89.7889 18.5864 91.2237 18.5864C91.2237 20.4995 91.2237 22.4333 91.2237 24.3879C91.2237 26.3425 91.2237 28.2763 91.2237 30.1894Z" fill="#6CCF9B"/>
</g>
<defs>
<filter id="filter0_d_99_935" x="0.334707" y="3" width="64.3653" height="36.8584" filterUnits="userSpaceOnUse" color-interpolation-filters="sRGB">
<feFlood flood-opacity="0" result="BackgroundImageFix"/>
<feColorMatrix in="SourceAlpha" type="matrix" values="0 0 0 0 0 0 0 0 0 0 0 0 0 0 0 0 0 0 127 0" result="hardAlpha"/>
<feOffset dy="0.664805"/>
<feGaussianBlur stdDeviation="0.332402"/>
<feComposite in2="hardAlpha" operator="out"/>
<feColorMatrix type="matrix" values="0 0 0 0 1 0 0 0 0 1 0 0 0 0 1 0 0 0 0.15 0"/>
<feBlend mode="normal" in2="BackgroundImageFix" result="effect1_dropShadow_99_935"/>
<feBlend mode="normal" in="SourceGraphic" in2="effect1_dropShadow_99_935" result="shape"/>
</filter>
<filter id="filter1_d_99_935" x="9.85458" y="0.0529144" width="44.5335" height="43.7151" filterUnits="userSpaceOnUse" color-interpolation-filters="sRGB">
<feFlood flood-opacity="0" result="BackgroundImageFix"/>
<feColorMatrix in="SourceAlpha" type="matrix" values="0 0 0 0 0 0 0 0 0 0 0 0 0 0 0 0 0 0 127 0" result="hardAlpha"/>
<feOffset dy="1.14609"/>
<feGaussianBlur stdDeviation="2.04659"/>
<feComposite in2="hardAlpha" operator="out"/>
<feColorMatrix type="matrix" values="0 0 0 0 0 0 0 0 0 0 0 0 0 0 0 0 0 0 0.24 0"/>
<feBlend mode="normal" in2="BackgroundImageFix" result="effect1_dropShadow_99_935"/>
<feBlend mode="normal" in="SourceGraphic" in2="effect1_dropShadow_99_935" result="shape"/>
</filter>
<filter id="filter2_d_99_935" x="72.3747" y="9.60371" width="167.29" height="23.5373" filterUnits="userSpaceOnUse" color-interpolation-filters="sRGB">
<feFlood flood-opacity="0" result="BackgroundImageFix"/>
<feColorMatrix in="SourceAlpha" type="matrix" values="0 0 0 0 0 0 0 0 0 0 0 0 0 0 0 0 0 0 127 0" result="hardAlpha"/>
<feOffset dy="0.664805"/>
<feGaussianBlur stdDeviation="0.332402"/>
<feComposite in2="hardAlpha" operator="out"/>
<feColorMatrix type="matrix" values="0 0 0 0 1 0 0 0 0 1 0 0 0 0 1 0 0 0 0.45 0"/>
<feBlend mode="normal" in2="BackgroundImageFix" result="effect1_dropShadow_99_935"/>
<feBlend mode="normal" in="SourceGraphic" in2="effect1_dropShadow_99_935" result="shape"/>
</filter>
<linearGradient id="paint0_linear_99_935" x1="32.1545" y1="1.85391" x2="32.1545" y2="40.166" gradientUnits="userSpaceOnUse">
<stop offset="0.420007" stop-color="white"/>
<stop offset="1" stop-color="#D2D2D0"/>
</linearGradient>
<linearGradient id="paint1_linear_99_935" x1="32.0395" y1="5.51114" x2="32.0395" y2="35.2275" gradientUnits="userSpaceOnUse">
<stop stop-color="#3F8BEB"/>
<stop offset="1" stop-color="#6CCF9B"/>
</linearGradient>
<clipPath id="clip0_99_935">
<rect width="36.3474" height="35.5288" fill="white" transform="translate(13.9478 3)"/>
</clipPath>
</defs>
</svg>
