<svg width="43" height="35" viewBox="0 0 43 35" fill="none" xmlns="http://www.w3.org/2000/svg">
<path d="M0.00026403 -0.000194668L16.2403 -0.000196088C17.8269 5.13314 18.6203 10.4531 18.6203 15.9598C18.6203 21.5598 17.1736 25.9931 14.2803 29.2598C11.2936 32.6198 6.90694 34.2998 1.12027 34.2998L1.12027 26.4598C5.78693 26.4598 8.12027 23.6131 8.12027 17.9198L8.12027 15.2598L0.000265364 15.2598L0.00026403 -0.000194668ZM23.6603 -0.000196736L39.9003 -0.000198156C41.4869 5.13314 42.2803 10.4531 42.2803 15.9598C42.2803 21.5598 40.8336 25.9931 37.9403 29.2598C34.9536 32.6198 30.5669 34.2998 24.7803 34.2998L24.7803 26.4598C29.4469 26.4598 31.7803 23.6131 31.7803 17.9198L31.7803 15.2598L23.6603 15.2598L23.6603 -0.000196736Z" fill="#C23893"/>
</svg>
